<svg width="311" height="255" viewBox="0 0 311 255" fill="none" xmlns="http://www.w3.org/2000/svg">
<path opacity="0.49" d="M214.186 24.187C152.203 41.3326 101.527 1.69573 69.5566 0.0795832C21.4867 -2.34463 -27.4534 50.7291 36.7779 143.647C101.009 236.565 127.339 257.512 197.574 247.955C253.771 240.31 291.294 187.034 302.1 149.702C319.007 91.2518 276.169 7.04661 214.186 24.187Z" fill="url(#paint0_linear)"/>
<path d="M149.68 12.3872H70.8516V69.3769H149.68V12.3872Z" fill="#223762"/>
<path d="M147.814 12.3872H69.9443V69.3769H147.814V12.3872Z" fill="url(#paint1_linear)"/>
<path d="M144.775 15.7073H72.9961V66.0667H144.775V15.7073Z" fill="url(#paint2_linear)"/>
<path d="M74.405 15.7073H72.9961V66.0667H74.405V15.7073Z" fill="#223762"/>
<path d="M74.3994 57.4214L93.2389 44.9377L115.259 49.6049L138.253 24.3889L144.774 31.5735V66.0616H74.3994V57.4214Z" fill="#D6E3FA"/>
<path d="M85.583 34.7281C88.1406 34.7281 90.2139 32.1306 90.2139 28.9265C90.2139 25.7224 88.1406 23.125 85.583 23.125C83.0255 23.125 80.9521 25.7224 80.9521 28.9265C80.9521 32.1306 83.0255 34.7281 85.583 34.7281Z" fill="white"/>
<path d="M85.2363 50.2422L91.5714 52.9773L96.9585 49.2891L108.059 48.077L93.2393 44.938L85.2363 50.2422Z" fill="white"/>
<path d="M130.855 32.4955L135.937 35.5517L139.226 33.3088L142.728 34.7229L144.929 34.0236L144.774 31.5735L138.252 24.3889L130.855 32.4955Z" fill="white"/>
<path d="M74.3994 61.032C80.1255 57.3091 87.0212 55.823 93.7724 56.8569C105.215 58.5559 106.204 64.43 116.942 61.9592C127.68 59.4883 132.088 47.274 137.004 48.2012C141.92 49.1285 144.93 54.3913 144.93 54.3913L144.769 66.0669H74.3994V61.032Z" fill="white"/>
<path d="M74.3994 61.9591C74.3994 61.9591 82.3299 57.1677 93.7724 58.5559C105.215 59.9441 106.204 64.7355 116.942 62.6998C127.68 60.6641 132.088 50.7393 137.004 51.4956C141.92 52.2519 144.93 56.5409 144.93 56.5409L144.769 66.0668H74.3994V61.9591Z" fill="#3769A5"/>
<path opacity="0.49" d="M29.0078 163.072C30.3132 156.591 38.9429 155.183 42.3151 160.865C50.287 174.297 67.7642 198.44 83.7546 212.385C106.194 231.949 68.6706 251.167 47.2516 242.501C25.8325 233.835 26.8737 174.245 28.9301 163.393L29.0078 163.072Z" fill="url(#paint3_linear)"/>
<path d="M81.947 128.04C81.947 128.04 79.2897 126.848 78.1656 125.585C77.0416 124.321 71.1624 116.52 70.0798 116.297C69.5899 116.182 69.0802 116.183 68.5905 116.298C68.1008 116.413 67.6443 116.639 67.2567 116.96C66.547 117.587 78.2174 140.378 78.2174 140.378L88.6291 136.789L81.947 128.04Z" fill="url(#paint4_linear)"/>
<path d="M67.257 116.96C67.257 116.96 66.6664 116.96 66.1174 118.063C65.5683 119.166 65.9413 124.279 67.7283 128.06C69.5154 131.842 71.5252 138.938 71.9241 139.751C72.2224 140.218 72.6443 140.592 73.1427 140.832C73.6412 141.073 74.1966 141.17 74.7472 141.114C75.721 140.917 77.4873 140.658 78.2229 140.404C78.9584 140.15 79.6215 138.995 76.9797 134.328C74.3379 129.661 72.8772 127.496 71.5822 123.756C70.2872 120.016 69.7278 118.006 68.8006 117.473C68.3399 117.169 67.8076 116.992 67.257 116.96Z" fill="url(#paint5_linear)"/>
<path d="M167.462 153.743C167.462 153.743 141.677 131.697 133.694 126.807C125.712 121.917 82.6668 126.807 82.1851 126.807C81.7033 126.807 80.2529 129.816 80.2529 132.769C80.2529 135.721 84.2777 139.503 84.2777 139.503L122.091 140.876L166.121 159.585L167.462 153.743Z" fill="url(#paint6_linear)"/>
<path d="M107.867 128.34C101.444 128.817 88.4839 130.93 80.2686 132.354C80.2686 132.499 80.2686 132.644 80.2686 132.79C80.2686 135.737 84.2934 139.523 84.2934 139.523L122.107 140.896L166.136 159.606L167.494 153.773C167.494 153.773 155.507 143.528 145.349 135.452C131.762 132.049 113.741 127.905 107.867 128.34Z" fill="url(#paint7_linear)"/>
<path d="M88.7017 139.109C88.7017 139.109 86.3344 137.41 85.4901 135.944C84.6458 134.478 80.4448 125.662 79.4296 125.222C78.9724 125.011 78.4727 124.909 77.9695 124.923C77.4662 124.937 76.9732 125.068 76.5288 125.305C75.7104 125.766 82.5634 150.469 82.5634 150.469L93.4879 149.039L88.7017 139.109Z" fill="url(#paint8_linear)"/>
<path d="M186.25 244.474L145.878 249.52H189.566V244.474H186.25Z" fill="url(#paint9_linear)"/>
<path d="M192.881 244.474L233.248 249.52H189.565V244.474H192.881Z" fill="url(#paint10_linear)"/>
<path d="M192.86 183.304H186.25V244.48H192.86V183.304Z" fill="url(#paint11_linear)"/>
<path d="M195.621 186.449H183.489V197.751H195.621V186.449Z" fill="url(#paint12_linear)"/>
<path d="M189.555 177.917H131.731V184.263H189.555V177.917Z" fill="url(#paint13_linear)"/>
<path d="M239.547 105.025H180.827C179.398 105.025 178.237 106.419 178.237 108.133V108.263C178.12 115.92 177.601 123.566 176.683 131.169C175.97 137.29 174.868 143.359 173.384 149.34C171.871 155.24 169.882 160.668 167.411 164.704C164.666 169.19 160.982 173.029 156.611 175.954C152.255 178.834 147.354 180.57 142.444 180.57C139.095 180.571 135.798 179.752 132.84 178.182C131.53 177.493 130.007 178.223 129.437 179.813C128.867 181.404 129.473 183.248 130.784 183.957C133.988 185.654 137.523 186.632 141.144 186.822L141.221 186.858H200.034L226.147 171.096L234.719 156.385L239.972 116.732L239.547 105.025Z" fill="url(#paint14_linear)"/>
<path d="M189.426 177.917H175.279V184.563H189.426V177.917Z" fill="url(#paint15_linear)"/>
<path d="M235.848 108.149V108.263C235.73 115.92 235.212 123.566 234.294 131.169C233.581 137.29 232.478 143.359 230.994 149.34C229.481 155.24 227.492 160.668 225.021 164.703C222.277 169.19 218.592 173.029 214.221 175.954C209.865 178.834 204.965 180.57 200.054 180.57C196.706 180.571 193.408 179.752 190.451 178.182C189.14 177.493 187.617 178.223 187.047 179.813C186.478 181.404 187.084 183.248 188.394 183.957C191.983 185.864 195.985 186.862 200.049 186.863C205.97 186.863 211.683 184.791 216.697 181.481C221.754 178.096 226.014 173.65 229.181 168.454C232.248 163.414 234.439 157.167 236.086 150.614C238.551 140.772 239.769 130.246 240.396 122.124C241.022 114.002 241.038 108.289 241.038 108.221C241.038 106.491 239.888 105.082 238.448 105.077C237.008 105.072 235.858 106.471 235.858 108.185L235.848 108.149Z" fill="url(#paint16_linear)"/>
<path d="M204.742 162.626C204.742 162.626 201.981 170.888 191.388 175.804C180.795 180.72 165.23 183.056 155.455 179.948C138.879 174.768 122.609 144.771 122.609 144.771L91.317 150.111C89.3924 148.227 88.2776 145.666 88.209 142.973V138.208C88.209 138.208 120.806 129.972 127.898 129.806C134.989 129.64 164.675 155.276 166.307 156.643C167.939 158.011 174.548 148.93 174.548 148.93L204.742 162.626Z" fill="url(#paint17_linear)"/>
<path d="M167.462 170.94C157.791 171.696 149.218 166.641 142.034 161.73C134.849 156.82 130.182 139.923 119.589 139.674C111.467 139.482 95.4608 143.253 88.4316 145.025C88.8978 146.96 89.8974 148.726 91.3169 150.122L122.609 144.781C122.609 144.781 138.905 174.758 155.455 179.958C165.229 183.03 180.8 180.715 191.388 175.814C201.976 170.914 204.742 162.652 204.742 162.652L184.67 153.561C180.821 160.249 173.937 170.453 167.462 170.94Z" fill="url(#paint18_linear)"/>
<path d="M204.411 57.7427C204.411 57.7427 205.11 56.9139 208.555 55.2201C212 53.5262 219.184 54.3499 219.433 54.6192C219.682 54.8886 221.469 61.7261 217.946 63.8551C214.424 65.984 211.3 66.6522 209.477 66.2275C207.654 65.8027 204.929 65.3831 204.929 65.3831L204.411 57.7427Z" fill="url(#paint19_linear)"/>
<path d="M245.939 68.2996C245.939 68.2996 246.426 65.7096 242.768 62.1769C239.111 58.6441 231.891 56.1992 229.078 58.2556C226.265 60.3121 227.042 65.1139 227.063 65.3988C227.084 65.6837 236.205 68.8952 236.205 68.8952L232.01 69.4132C232.01 69.4132 237.262 72.5626 239.412 73.0392C241.562 73.5158 245.939 68.2996 245.939 68.2996Z" fill="url(#paint20_linear)"/>
<path d="M198.816 92.2878C198.816 92.2878 187.633 87.7864 184.608 80.7209C181.583 73.6555 206.778 66.4347 206.778 66.4347C206.778 66.4347 207.249 62.9693 207.617 60.369C207.985 57.7686 204.38 57.261 204.38 57.261C204.38 57.261 195.677 58.815 180.971 64.2435C169.933 68.3098 169.576 69.4235 167.965 75.2665C166.354 81.1094 181.142 101.006 187.058 113.536C190.622 121.109 198.816 92.2878 198.816 92.2878Z" fill="url(#paint21_linear)"/>
<path d="M215.698 94.9399C215.698 94.9399 227.136 95.8412 229.933 97.8407C232.73 99.8401 234.75 104.901 235.563 109.936C236.377 114.971 226.312 144.641 217.34 155.82C208.369 166.998 206.255 165.926 206.255 165.926C206.255 165.926 176.211 162.481 170.69 159.264C165.168 156.048 162.65 152.634 162.65 152.634C162.65 152.634 176.999 129.081 180.314 116.447C183.629 103.813 186.38 94.8985 192.072 93.1891C197.765 91.4797 204.344 91.4124 204.344 91.4124L215.698 94.9399Z" fill="url(#paint22_linear)"/>
<path d="M235.563 109.931C235.313 108.372 234.948 106.835 234.47 105.331L227.508 105.818C227.508 105.818 229.865 114.453 228.591 117.799C227.316 121.145 220.013 127.755 211.657 129.195C203.302 130.635 213.885 133.997 214.765 136.903C215.646 139.809 197.195 145.807 186.001 142.601C180.996 141.201 176.138 139.319 171.497 136.98C167.032 145.512 162.691 152.665 162.691 152.665C162.691 152.665 165.183 156.079 170.731 159.295C176.278 162.512 206.296 165.957 206.296 165.957C206.296 165.957 208.41 167.039 217.381 155.851C226.353 144.662 236.376 114.966 235.563 109.931Z" fill="url(#paint23_linear)"/>
<path d="M206.068 91.542C205.368 91.7454 204.77 92.2062 204.395 92.8318C204.01 93.5667 203.885 94.4099 204.039 95.225C204.193 96.0401 204.618 96.7793 205.245 97.3228C206.845 98.6489 212.641 99.7367 215.511 98.6385C218.381 97.5404 217.941 95.4736 217.941 95.4736L206.068 91.542Z" fill="white"/>
<path d="M207.545 82.5234L206.068 91.5469C206.068 91.5469 206.705 93.6189 210.212 94.9916C213.719 96.3642 217.956 95.4785 217.956 95.4785L221.323 87.0041L207.545 82.5234Z" fill="url(#paint24_linear)"/>
<path d="M214.501 50.5271C214.501 50.5271 209.145 62.1613 207.405 66.3052C205.664 70.4492 210.419 73.4794 210.419 73.4794L221.028 68.4652L222.473 54.697L214.501 50.5271Z" fill="url(#paint25_linear)"/>
<path d="M209.073 64.8082C207.519 69.6101 205.67 75.4271 205.732 81.1561C205.794 86.8852 215.175 91.7232 219.966 89.0297C224.758 86.3361 228.322 80.462 228.322 80.462C228.322 80.462 231.606 82.016 233.445 79.8042C235.284 77.5923 236.553 73.7696 235.242 72.4228C233.932 71.076 231.787 72.2311 231.787 72.2311C231.787 72.2311 234.227 67.5692 231.937 63.1869C229.648 58.8047 216.004 54.7695 215.051 55.1166C214.098 55.4636 210.632 60.0064 209.073 64.8082Z" fill="url(#paint26_linear)"/>
<path d="M227.187 77.5506C227.187 77.5506 230.761 71.9873 231.331 69.0814C231.901 66.1755 231.103 63.7875 228.399 61.4928C225.695 59.1981 216.314 56.8308 214.527 55.4581C212.74 54.0855 211.937 52.7024 214.18 48.9988C216.423 45.2951 224.292 41.923 232.061 45.8649C239.831 49.8068 242.302 54.9402 244.017 58.4159C245.731 61.8916 241.52 67.9573 238.635 73.3031C235.75 78.6488 230.865 85.5536 228.156 87.5945C225.447 89.6354 222.018 87.6204 222.018 87.6204L228.435 79.9075C228.435 79.9075 229.554 81.0212 231.813 79.7883C234.071 78.5555 235.957 75.546 235.641 73.6398C235.325 71.7335 232.699 71.143 231.129 72.842C229.56 74.5411 227.187 77.5506 227.187 77.5506Z" fill="url(#paint27_linear)"/>
<path d="M212.823 68.2012C212.823 68.2012 209.456 73.8059 209.078 75.3754C208.7 76.9449 212.994 77.3386 212.994 77.3386" stroke="#EB6057" stroke-linecap="round" stroke-linejoin="round"/>
<path d="M234.801 57.8982C231.201 54.6401 216.982 53.5367 215.848 51.0711C215.496 50.3044 215.552 48.8489 215.801 47.2017C215.172 47.7197 214.63 48.3353 214.195 49.025C211.973 52.7287 212.76 54.1324 214.542 55.4844C216.324 56.8364 225.705 59.2243 228.414 61.519C231.123 63.8137 231.937 66.181 231.346 69.1076C230.756 72.0343 227.202 77.5768 227.202 77.5768C227.202 77.5768 238.401 61.1564 234.801 57.8982Z" fill="url(#paint28_linear)"/>
<path d="M231.155 74.8312C231.155 74.8312 232.59 74.4997 232.579 75.6755C232.569 76.8514 232.144 77.8252 230.6 77.9599C230.355 77.9733 230.114 77.8955 229.923 77.7415C229.731 77.5876 229.604 77.3683 229.564 77.1259" stroke="#EB6057" stroke-linecap="round" stroke-linejoin="round"/>
<path d="M216.636 65.9944C216.636 65.9944 217.221 69.9778 219.407 70.5268C220.622 70.8735 221.919 70.7912 223.08 70.2937" stroke="#EB6057" stroke-linecap="round" stroke-linejoin="round"/>
<path d="M213.973 64.8392C213.973 64.8392 212.491 66.1911 211.186 65.8752C209.881 65.5592 210.761 63.425 210.761 63.425" stroke="#EB6057" stroke-linecap="round" stroke-linejoin="round"/>
<path d="M228.12 97.3589C228.12 97.3589 254.356 94.1629 258.013 91.1067C261.67 88.0505 239.101 73.469 239.101 73.469C239.101 73.469 242.489 67.626 244.608 67.2893L246.726 66.9526C246.726 66.9526 273.346 81.8502 275.91 89.071C278.474 96.2918 263.426 106.683 254.9 110.184C246.374 113.686 235.216 118.312 230.202 116.779C225.188 115.245 223.763 108.019 225.292 103.114C226.82 98.2084 228.12 97.3589 228.12 97.3589Z" fill="url(#paint29_linear)"/>
<path d="M106.536 249.509H112.814L88.2556 157.861H81.9775L106.536 249.509Z" fill="url(#paint30_linear)"/>
<path d="M57.2283 249.509H50.9502L75.5083 157.861H81.7864L57.2283 249.509Z" fill="url(#paint31_linear)"/>
<path d="M251.906 249.509H258.189L233.631 157.861H227.348L251.906 249.509Z" fill="url(#paint32_linear)"/>
<path d="M202.604 249.509H196.32L220.878 157.861H227.162L202.604 249.509Z" fill="url(#paint33_linear)"/>
<path d="M75.0161 249.509H81.2994L56.7413 157.861H50.458L75.0161 249.509Z" fill="url(#paint34_linear)"/>
<path d="M25.713 249.509H19.4297L43.9878 157.861H50.2711L25.713 249.509Z" fill="url(#paint35_linear)"/>
<path d="M53.1677 86.5678L53.2819 85.9357C53.35 85.5585 53.0995 85.1974 52.7222 85.1293L15.2102 78.3528C14.8329 78.2847 14.4719 78.5352 14.4037 78.9125L14.2895 79.5446C14.2214 79.9218 14.472 80.2829 14.8492 80.351L52.3612 87.1275C52.7385 87.1956 53.0995 86.9451 53.1677 86.5678Z" fill="#223762"/>
<path opacity="0.48" d="M67.4276 107.315C70.1345 105.59 70.9303 101.997 69.2052 99.29C67.4801 96.5831 63.8873 95.7873 61.1805 97.5124C58.4736 99.2375 57.6778 102.83 59.4029 105.537C61.128 108.244 64.7208 109.04 67.4276 107.315Z" fill="#EF8C48"/>
<path d="M53.8972 82.5383L54.0114 81.9062C54.0795 81.529 53.829 81.1679 53.4517 81.0998L15.9397 74.3233C15.5624 74.2551 15.2014 74.5057 15.1332 74.8829L15.019 75.515C14.9509 75.8923 15.2015 76.2533 15.5787 76.3215L53.0907 83.0979C53.468 83.1661 53.829 82.9155 53.8972 82.5383Z" fill="#223762"/>
<path d="M19.2216 76.1058L18.5903 76.2246C18.2136 76.2955 17.9657 76.6584 18.0366 77.0352L32.5015 153.882C32.5724 154.259 32.9353 154.507 33.3121 154.436L33.9433 154.317C34.32 154.246 34.5679 153.883 34.497 153.506L20.0321 76.6596C19.9612 76.2828 19.5983 76.0349 19.2216 76.1058Z" fill="#223762"/>
<path d="M63.1604 104.159L66.3579 102.121C67.0744 101.665 67.2851 100.714 66.8284 99.9971L53.5768 79.2043C53.1202 78.4878 52.1691 78.2771 51.4526 78.7338L48.2551 80.7716C47.5385 81.2283 47.3279 82.1793 47.7845 82.8958L61.0362 103.689C61.4928 104.405 62.4438 104.616 63.1604 104.159Z" fill="url(#paint36_linear)"/>
<path d="M66.5288 105.904C68.4564 104.675 69.0231 102.117 67.7947 100.189C66.5662 98.2616 64.0077 97.6948 62.0801 98.9233C60.1525 100.152 59.5857 102.71 60.8142 104.638C62.0427 106.566 64.6012 107.132 66.5288 105.904Z" fill="url(#paint37_linear)"/>
<path d="M56.1044 89.5526C61.8024 85.9267 70.6083 89.4283 75.6846 97.4158L54.9648 110.619C49.873 102.632 50.3858 93.1993 56.1044 89.5526Z" fill="url(#paint38_linear)"/>
<path d="M75.6838 97.416L70.1153 100.964C66.3909 95.1213 61.5425 90.8997 57.0049 89.0504C62.7132 86.2791 70.8561 89.8326 75.6838 97.416Z" fill="#223762"/>
<path d="M15.1932 76.8631L14.562 76.982C14.1853 77.0529 13.9374 77.4158 14.0083 77.7925L28.4731 154.639C28.544 155.016 28.9069 155.264 29.2836 155.193L29.9148 155.074C30.2915 155.003 30.5395 154.641 30.4686 154.264L16.0038 77.4169C15.9329 77.0401 15.57 76.7922 15.1932 76.8631Z" fill="#223762"/>
<path d="M18.5334 82.6791C21.2712 82.6791 23.4906 80.4596 23.4906 77.7218C23.4906 74.9841 21.2712 72.7646 18.5334 72.7646C15.7956 72.7646 13.5762 74.9841 13.5762 77.7218C13.5762 80.4596 15.7956 82.6791 18.5334 82.6791Z" fill="#223762"/>
<path d="M17.6115 82.6791C20.3493 82.6791 22.5687 80.4596 22.5687 77.7218C22.5687 74.9841 20.3493 72.7646 17.6115 72.7646C14.8737 72.7646 12.6543 74.9841 12.6543 77.7218C12.6543 80.4596 14.8737 82.6791 17.6115 82.6791Z" fill="#4C93F4"/>
<path d="M17.6121 80.2031C18.9824 80.2031 20.0932 79.0922 20.0932 77.7219C20.0932 76.3516 18.9824 75.2407 17.6121 75.2407C16.2417 75.2407 15.1309 76.3516 15.1309 77.7219C15.1309 79.0922 16.2417 80.2031 17.6121 80.2031Z" fill="#223762"/>
<path d="M19.4294 157.861L258.903 157.861V150.469L19.4294 150.469V157.861Z" fill="url(#paint39_linear)"/>
<path d="M214.838 157.861H258.903V150.469H214.838V157.861Z" fill="#3769A5"/>
<path d="M19.4294 157.861L258.903 157.861V155.457L19.4294 155.457V157.861Z" fill="#83A4D6"/>
<path d="M215.05 157.861H258.903V155.457H215.05V157.861Z" fill="#223762"/>
<path d="M221.385 249.509H227.663L203.11 157.861H196.827L221.385 249.509Z" fill="url(#paint40_linear)"/>
<path d="M172.083 249.509H165.8L190.358 157.861H196.641L172.083 249.509Z" fill="url(#paint41_linear)"/>
<path d="M0 254.964H310.797L289.466 249.51H19.6734L0 254.964Z" fill="url(#paint42_linear)"/>
<path d="M76.5337 125.305C76.5337 125.305 75.9483 125.212 75.192 126.154C74.4358 127.097 73.7727 132.204 74.7673 136.271C75.7618 140.337 76.3213 147.667 76.5337 148.563C76.7323 149.079 77.0704 149.53 77.5103 149.866C77.9502 150.202 78.4746 150.409 79.0252 150.464C80.0198 150.464 81.8017 150.562 82.5735 150.464C83.3453 150.365 84.2259 149.366 82.5735 144.248C80.9211 139.13 79.9265 136.732 79.4033 132.805C78.8802 128.879 78.7403 126.802 77.9374 126.071C77.5434 125.699 77.0598 125.435 76.5337 125.305Z" fill="url(#paint43_linear)"/>
<path d="M42.3871 150.485H65.4897L59.0303 119.54H35.9277L42.3871 150.485Z" fill="#223762"/>
<path d="M40.3617 150.485H63.8839L57.3053 119.54H33.7832L40.3617 150.485Z" fill="url(#paint44_linear)"/>
<path d="M45.7436 129.153L37.9219 150.484H50.2812L46.9816 129.153H45.7436Z" fill="#223762"/>
<path d="M46.9816 129.153L39.165 150.484H51.5192L46.9816 129.153Z" fill="#4C93F4"/>
<path d="M259.645 158.969C255.081 176.27 257.169 193.281 264.104 205.703C276.267 198.316 286.471 184.548 291.04 167.247C295.609 149.946 293.516 132.935 286.58 120.513C274.413 127.9 264.208 141.668 259.645 158.969Z" fill="url(#paint45_linear)"/>
<path d="M277.8 158.275C274.94 166.316 272.576 174.524 270.719 182.854C267.419 197.358 268.253 214.596 268.253 214.596" stroke="#112244" stroke-linecap="round" stroke-linejoin="round"/>
<path d="M258.572 153.297C258.572 153.297 260.551 169.904 262.996 182.75C265.441 195.597 267.093 212.509 267.093 212.509" stroke="#112244" stroke-linecap="round" stroke-linejoin="round"/>
<path d="M254.604 181.222C254.604 181.222 258.572 192.059 261.473 199.077C264.374 206.096 267.093 213.322 267.093 213.322" stroke="#112244" stroke-linecap="round" stroke-linejoin="round"/>
<path d="M271.274 92.443C269.202 107.6 270.999 121.585 275.474 131.034C282.317 123.129 287.803 110.143 289.875 94.9812C291.947 79.8195 290.149 65.8388 285.674 56.3906C278.831 64.2952 273.345 77.2813 271.274 92.443Z" fill="url(#paint46_linear)"/>
<path d="M257.215 116.752C257.836 102.875 258.769 77.8252 259.287 63.2229C249.657 75.1368 243.478 93.4064 243.478 113.914C243.478 134.183 249.517 152.245 258.955 164.159C257.914 150.179 256.645 129.386 257.215 116.752Z" fill="url(#paint47_linear)"/>
<path d="M275.92 113.914C275.92 93.1116 269.57 74.6089 259.702 62.7002C259.562 62.8711 259.432 63.0524 259.293 63.2182C258.775 77.8204 257.837 102.871 257.221 116.748C256.656 129.382 257.92 150.174 258.966 164.175C259.215 164.486 259.453 164.818 259.707 165.123C269.57 153.22 275.92 134.712 275.92 113.914Z" fill="url(#paint48_linear)"/>
<path d="M276.024 128.118C272.284 140.591 272.766 152.826 276.542 161.735C284.597 156.369 291.73 146.418 295.47 133.945C299.21 121.472 298.728 109.237 294.952 100.327C286.897 105.673 279.764 115.649 276.024 128.118Z" fill="url(#paint49_linear)"/>
<path d="M285.037 249.509H249.337L244.038 203.242H290.342L285.037 249.509Z" fill="url(#paint50_linear)"/>
<path d="M244.038 203.242L249.337 249.509H262.997L259.044 203.242H244.038Z" fill="url(#paint51_linear)"/>
<path d="M292.144 201.921H242.225V213.322H292.144V201.921Z" fill="#FFD46A"/>
<path d="M260.411 123.31C261.427 123.31 262.25 121.842 262.25 120.032C262.25 118.221 261.427 116.753 260.411 116.753C259.396 116.753 258.572 118.221 258.572 120.032C258.572 121.842 259.396 123.31 260.411 123.31Z" fill="url(#paint52_linear)"/>
<path d="M265.96 124.957C267.241 123.676 267.696 122.056 266.978 121.338C266.26 120.62 264.64 121.076 263.36 122.356C262.079 123.637 261.623 125.257 262.341 125.975C263.059 126.693 264.68 126.237 265.96 124.957Z" fill="url(#paint53_linear)"/>
<path d="M265.846 142.853C267.604 141.095 268.231 138.872 267.245 137.887C266.26 136.902 264.037 137.528 262.279 139.286C260.521 141.044 259.894 143.267 260.879 144.253C261.865 145.238 264.088 144.611 265.846 142.853Z" fill="url(#paint54_linear)"/>
<path d="M265.309 151.107C266.358 148.853 266.185 146.549 264.922 145.961C263.659 145.373 261.785 146.723 260.735 148.977C259.686 151.23 259.859 153.534 261.122 154.122C262.385 154.71 264.259 153.36 265.309 151.107Z" fill="url(#paint55_linear)"/>
<path d="M232.828 159.725C238.526 174.1 247.979 185.148 258.059 190.67C244.099 174.903 229.989 119.897 229.989 119.897C226.451 130.826 227.135 145.351 232.828 159.725Z" fill="url(#paint56_linear)"/>
<path d="M255.241 150.842C249.543 136.467 240.09 125.419 230.01 119.897C230.01 119.897 244.104 174.903 258.059 190.67C261.618 179.746 260.934 165.216 255.241 150.842Z" fill="url(#paint57_linear)"/>
<path d="M255.241 150.842C249.543 136.467 240.09 125.419 230.01 119.897C230.01 119.897 244.104 174.903 258.059 190.67C261.618 179.746 260.934 165.216 255.241 150.842Z" fill="url(#paint58_linear)"/>
<path d="M246.446 163.658C247.169 163.355 247.318 162.065 246.778 160.778C246.239 159.49 245.216 158.692 244.493 158.995C243.77 159.297 243.621 160.587 244.16 161.874C244.7 163.162 245.723 163.96 246.446 163.658Z" fill="url(#paint59_linear)"/>
<path d="M255.58 165.12C256.303 164.818 256.452 163.528 255.912 162.241C255.373 160.953 254.349 160.155 253.626 160.457C252.903 160.76 252.755 162.05 253.294 163.337C253.834 164.625 254.857 165.423 255.58 165.12Z" fill="url(#paint60_linear)"/>
<path d="M251.892 162.199C252.423 160.901 252.262 159.607 251.533 159.309C250.804 159.011 249.783 159.822 249.253 161.121C248.722 162.419 248.883 163.713 249.612 164.011C250.341 164.309 251.362 163.498 251.892 162.199Z" fill="url(#paint61_linear)"/>
<path d="M251.624 168.064C252.153 166.772 251.994 165.484 251.268 165.187C250.543 164.889 249.526 165.696 248.997 166.988C248.468 168.28 248.627 169.568 249.352 169.865C250.078 170.162 251.095 169.356 251.624 168.064Z" fill="url(#paint62_linear)"/>
<path d="M256.136 175.938C256.862 174.164 256.644 172.396 255.649 171.988C254.653 171.581 253.257 172.688 252.531 174.462C251.805 176.236 252.023 178.004 253.018 178.412C254.014 178.819 255.409 177.712 256.136 175.938Z" fill="url(#paint63_linear)"/>
<path d="M258.213 181.968C258.288 180.053 257.477 178.466 256.402 178.424C255.327 178.382 254.395 179.901 254.32 181.816C254.245 183.731 255.056 185.318 256.131 185.36C257.206 185.402 258.138 183.884 258.213 181.968Z" fill="url(#paint64_linear)"/>
<path d="M131.7 184.263H183.251L184.971 177.917H131.7V184.263Z" fill="url(#paint65_linear)"/>
<path d="M128.603 92.0548H114.477C113.965 92.0548 113.473 92.2583 113.111 92.6207C112.749 92.983 112.545 93.4744 112.545 93.9869V102.684C112.542 102.939 112.59 103.193 112.686 103.43C112.782 103.667 112.924 103.882 113.104 104.064C113.283 104.245 113.497 104.389 113.733 104.488C113.969 104.586 114.222 104.637 114.477 104.637H117.585L120.496 108.615H121.563L125.542 104.637H128.649C129.162 104.637 129.653 104.433 130.016 104.071C130.378 103.709 130.582 103.217 130.582 102.705V93.9921C130.582 93.7339 130.531 93.4782 130.432 93.2401C130.332 93.002 130.186 92.7863 130.001 92.6057C129.817 92.4251 129.598 92.2833 129.358 92.1887C129.118 92.0941 128.861 92.0485 128.603 92.0548Z" fill="url(#paint66_linear)"/>
<path d="M127.53 92.0546H113.41C112.897 92.0546 112.406 92.2582 112.043 92.6206C111.681 92.9829 111.478 93.4743 111.478 93.9868V102.684C111.478 103.196 111.681 103.688 112.043 104.05C112.406 104.412 112.897 104.616 113.41 104.616H116.518L120.496 108.594L124.474 104.616H127.582C128.094 104.616 128.586 104.412 128.948 104.05C129.311 103.688 129.514 103.196 129.514 102.684V93.9919C129.515 93.7334 129.464 93.4773 129.364 93.2388C129.264 93.0003 129.117 92.7844 128.932 92.6037C128.747 92.4231 128.527 92.2814 128.287 92.187C128.046 92.0927 127.789 92.0477 127.53 92.0546Z" fill="url(#paint67_linear)"/>
<path d="M107.116 65.6318H92.9956C92.4832 65.6318 91.9917 65.8354 91.6294 66.1977C91.267 66.56 91.0635 67.0515 91.0635 67.5639V76.261C91.0635 76.7735 91.267 77.2649 91.6294 77.6273C91.9917 77.9896 92.4832 78.1932 92.9956 78.1932H96.1036L99.0147 82.1714H100.082L104.06 78.1932H107.168C107.68 78.1932 108.172 77.9896 108.534 77.6273C108.896 77.2649 109.1 76.7735 109.1 76.261V67.5639C109.1 67.3058 109.048 67.0502 108.948 66.8124C108.848 66.5745 108.701 66.3592 108.516 66.1791C108.331 65.999 108.112 65.8577 107.871 65.7637C107.631 65.6697 107.374 65.6249 107.116 65.6318Z" fill="url(#paint68_linear)"/>
<path d="M106.049 65.6318H91.9282C91.4158 65.6318 90.9243 65.8354 90.562 66.1977C90.1997 66.56 89.9961 67.0515 89.9961 67.5639V76.261C89.9961 76.7735 90.1997 77.2649 90.562 77.6273C90.9243 77.9896 91.4158 78.1932 91.9282 78.1932H95.0362L99.0144 82.1714L102.993 78.1932H106.101C106.613 78.1932 107.104 77.9896 107.467 77.6273C107.829 77.2649 108.033 76.7735 108.033 76.261V67.5639C108.033 67.3058 107.981 67.0502 107.881 66.8124C107.78 66.5745 107.633 66.3592 107.449 66.1791C107.264 65.999 107.044 65.8577 106.804 65.7637C106.564 65.6697 106.307 65.6249 106.049 65.6318Z" fill="url(#paint69_linear)"/>
<path d="M153.021 75.5101H138.895C138.383 75.5101 137.891 75.7136 137.529 76.076C137.166 76.4383 136.963 76.9298 136.963 77.4422V86.1445C136.963 86.6569 137.166 87.1484 137.529 87.5107C137.891 87.8731 138.383 88.0766 138.895 88.0766H142.003L144.914 92.0548H145.981L149.959 88.0766H153.067C153.58 88.0766 154.071 87.8731 154.434 87.5107C154.796 87.1484 154.999 86.6569 154.999 86.1445V77.4422C155 77.1845 154.948 76.9294 154.848 76.6919C154.748 76.4544 154.602 76.2393 154.417 76.0592C154.233 75.8792 154.014 75.7379 153.774 75.6436C153.535 75.5492 153.278 75.5039 153.021 75.5101Z" fill="url(#paint70_linear)"/>
<path d="M151.953 75.5101H137.828C137.574 75.5101 137.323 75.5601 137.088 75.6572C136.854 75.7543 136.641 75.8966 136.461 76.076C136.282 76.2554 136.14 76.4684 136.043 76.7028C135.945 76.9372 135.896 77.1885 135.896 77.4422V86.1445C135.896 86.3982 135.945 86.6495 136.043 86.8839C136.14 87.1183 136.282 87.3313 136.461 87.5107C136.641 87.6901 136.854 87.8324 137.088 87.9295C137.323 88.0266 137.574 88.0766 137.828 88.0766H140.936L144.914 92.0548L148.892 88.0766H152C152.512 88.0766 153.004 87.8731 153.366 87.5107C153.729 87.1484 153.932 86.6569 153.932 86.1445V77.4422C153.932 77.1845 153.881 76.9294 153.781 76.6919C153.681 76.4544 153.534 76.2393 153.35 76.0592C153.165 75.8792 152.947 75.7379 152.707 75.6436C152.467 75.5492 152.211 75.5039 151.953 75.5101Z" fill="url(#paint71_linear)"/>
<path d="M130.985 150.505C130.985 150.505 113.337 150.702 106.173 150.106C99.0093 149.511 96.2018 145.092 95.5387 143.113C95.1532 142.028 94.9298 140.892 94.8757 139.741H72.374C72.4282 140.892 72.6516 142.028 73.0371 143.113C73.7001 145.092 76.5076 149.511 83.6715 150.106C90.8353 150.702 108.483 150.505 108.483 150.505H130.985Z" fill="url(#paint72_linear)"/>
<path d="M171.311 147.765H148.763C148.603 147.765 148.473 147.895 148.473 148.055V150.179C148.473 150.339 148.603 150.469 148.763 150.469H171.311C171.471 150.469 171.601 150.339 171.601 150.179V148.055C171.601 147.895 171.471 147.765 171.311 147.765Z" fill="#223762"/>
<path d="M108.841 150.469H152.161C153.005 150.469 153.508 149.64 153.285 148.62L145.945 114.888C145.722 113.852 144.857 113.039 144.018 113.039H100.698C99.854 113.039 99.3515 113.868 99.5743 114.888L106.914 148.62C107.137 149.64 108.002 150.469 108.841 150.469Z" fill="#223762"/>
<path d="M106.707 150.469H150.027C150.871 150.469 151.373 149.64 151.151 148.62L143.811 114.888C143.588 113.852 142.723 113.039 141.884 113.039H98.5743C97.73 113.039 97.2275 113.868 97.4503 114.888L104.79 148.62C105.008 149.64 105.873 150.469 106.707 150.469Z" fill="url(#paint73_linear)"/>
<path d="M122.185 128.221C121.95 127.665 121.776 127.084 121.667 126.491C121.175 126.477 120.693 126.634 120.304 126.936C118.75 128.117 118.45 131.225 119.61 133.877C120.77 136.53 122.967 137.721 124.51 136.535C125.728 135.602 126.163 133.479 125.733 131.324C124.427 131.298 123.029 130.153 122.185 128.221Z" fill="#D6E3FA"/>
<path d="M164.572 128.723V121.819L170.892 116.882L171.741 118.146L166.152 122.513V128.723H164.572Z" fill="url(#paint74_linear)"/>
<path d="M170.611 150.863H160.583L158.729 129.148H172.471L170.611 150.863Z" fill="url(#paint75_linear)"/>
<path d="M172.451 127.843H158.848L158.139 130.148H173.062L172.451 127.843Z" fill="url(#paint76_linear)"/>
<path d="M177.289 139.358L175.321 141.015L173.725 140.187L173.373 142.823L180.506 147.744L186.38 144.983L188.089 144.481V141.067L177.289 139.358Z" fill="url(#paint77_linear)"/>
<path d="M174.932 150.63L172.472 141.819H190.399L189.348 150.63H174.932Z" fill="url(#paint78_linear)"/>
<path d="M189.348 150.63H198.941L201.5 141.819H190.399L189.348 150.63Z" fill="url(#paint79_linear)"/>
<path d="M179.164 132.282L175.32 140.58L193.02 143.455L193.393 134.592L179.164 132.282Z" fill="url(#paint80_linear)"/>
<path d="M193.393 134.592L202.862 136.131L203.981 145.232L193.021 143.455L193.393 134.592Z" fill="url(#paint81_linear)"/>
<defs>
<linearGradient id="paint0_linear" x1="60.4269" y1="3.57957" x2="289.845" y2="192.419" gradientUnits="userSpaceOnUse">
<stop stop-color="white"/>
<stop offset="1" stop-color="#E4E9F1"/>
</linearGradient>
<linearGradient id="paint1_linear" x1="126.773" y1="16.469" x2="100.542" y2="52.2728" gradientUnits="userSpaceOnUse">
<stop stop-color="#4C93F4"/>
<stop offset="1" stop-color="#0B63DA"/>
</linearGradient>
<linearGradient id="paint2_linear" x1="18548.8" y1="1613.61" x2="16231.7" y2="4916.15" gradientUnits="userSpaceOnUse">
<stop stop-color="#4C93F4"/>
<stop offset="1" stop-color="#0B63DA"/>
</linearGradient>
<linearGradient id="paint3_linear" x1="52756.6" y1="2747.53" x2="-3732.22" y2="2117" gradientUnits="userSpaceOnUse">
<stop stop-color="#EAF1FC"/>
<stop offset="1" stop-color="#C0D4F4"/>
</linearGradient>
<linearGradient id="paint4_linear" x1="49.3182" y1="119.834" x2="93.3769" y2="135.203" gradientUnits="userSpaceOnUse">
<stop stop-color="#223762"/>
<stop offset="1" stop-color="#041B48"/>
</linearGradient>
<linearGradient id="paint5_linear" x1="52.3162" y1="122.759" x2="83.861" y2="133.76" gradientUnits="userSpaceOnUse">
<stop stop-color="#3769A5"/>
<stop offset="1" stop-color="#08448B"/>
</linearGradient>
<linearGradient id="paint6_linear" x1="17271" y1="9843.72" x2="22477.1" y2="9155.3" gradientUnits="userSpaceOnUse">
<stop stop-color="#3769A5"/>
<stop offset="1" stop-color="#08448B"/>
</linearGradient>
<linearGradient id="paint7_linear" x1="17289.8" y1="8938.31" x2="22474.4" y2="8174.8" gradientUnits="userSpaceOnUse">
<stop stop-color="#223762"/>
<stop offset="1" stop-color="#041B48"/>
</linearGradient>
<linearGradient id="paint8_linear" x1="2000.51" y1="6263.64" x2="3542.47" y2="6875.43" gradientUnits="userSpaceOnUse">
<stop stop-color="#223762"/>
<stop offset="1" stop-color="#041B48"/>
</linearGradient>
<linearGradient id="paint9_linear" x1="14904.9" y1="2674.83" x2="14988.5" y2="2925.93" gradientUnits="userSpaceOnUse">
<stop stop-color="#223762"/>
<stop offset="1" stop-color="#041B48"/>
</linearGradient>
<linearGradient id="paint10_linear" x1="194696" y1="2674.83" x2="194612" y2="2925.93" gradientUnits="userSpaceOnUse">
<stop stop-color="#223762"/>
<stop offset="1" stop-color="#041B48"/>
</linearGradient>
<linearGradient id="paint11_linear" x1="2399.08" y1="27143.8" x2="2837.41" y2="27101.5" gradientUnits="userSpaceOnUse">
<stop stop-color="#223762"/>
<stop offset="1" stop-color="#041B48"/>
</linearGradient>
<linearGradient id="paint12_linear" x1="4485.65" y1="4492.08" x2="4639.43" y2="4344.83" gradientUnits="userSpaceOnUse">
<stop stop-color="#223762"/>
<stop offset="1" stop-color="#041B48"/>
</linearGradient>
<linearGradient id="paint13_linear" x1="18841.2" y1="2696.1" x2="18837" y2="2562.99" gradientUnits="userSpaceOnUse">
<stop stop-color="#223762"/>
<stop offset="1" stop-color="#041B48"/>
</linearGradient>
<linearGradient id="paint14_linear" x1="42346.8" y1="30014.9" x2="42185.3" y2="29244.2" gradientUnits="userSpaceOnUse">
<stop stop-color="#223762"/>
<stop offset="1" stop-color="#041B48"/>
</linearGradient>
<linearGradient id="paint15_linear" x1="5244.23" y1="2650.18" x2="5235.67" y2="2586.04" gradientUnits="userSpaceOnUse">
<stop stop-color="#223762"/>
<stop offset="1" stop-color="#041B48"/>
</linearGradient>
<linearGradient id="paint16_linear" x1="18637.1" y1="35496.4" x2="19474.7" y2="34620.3" gradientUnits="userSpaceOnUse">
<stop stop-color="#3769A5"/>
<stop offset="1" stop-color="#08448B"/>
</linearGradient>
<linearGradient id="paint17_linear" x1="26513.3" y1="15771.3" x2="35875.3" y2="14651.3" gradientUnits="userSpaceOnUse">
<stop stop-color="#4C93F4"/>
<stop offset="1" stop-color="#0B63DA"/>
</linearGradient>
<linearGradient id="paint18_linear" x1="33690.5" y1="13122.5" x2="38492.4" y2="14520" gradientUnits="userSpaceOnUse">
<stop stop-color="#3769A5"/>
<stop offset="1" stop-color="#08448B"/>
</linearGradient>
<linearGradient id="paint19_linear" x1="215.847" y1="63.8864" x2="210.508" y2="58.3066" gradientUnits="userSpaceOnUse">
<stop stop-color="#F8A695"/>
<stop offset="1" stop-color="#E56045"/>
</linearGradient>
<linearGradient id="paint20_linear" x1="9347.05" y1="388.75" x2="9107.61" y2="127.772" gradientUnits="userSpaceOnUse">
<stop stop-color="#F8A695"/>
<stop offset="1" stop-color="#E56045"/>
</linearGradient>
<linearGradient id="paint21_linear" x1="170.389" y1="66.7558" x2="199.386" y2="87.9418" gradientUnits="userSpaceOnUse">
<stop stop-color="#FFC063"/>
<stop offset="0.95" stop-color="#E44D0B"/>
</linearGradient>
<linearGradient id="paint22_linear" x1="223.044" y1="101.796" x2="197.232" y2="142.874" gradientUnits="userSpaceOnUse">
<stop stop-color="#FFC063"/>
<stop offset="1" stop-color="#E58F0F"/>
</linearGradient>
<linearGradient id="paint23_linear" x1="23597.7" y1="9226.36" x2="31556.1" y2="16825.6" gradientUnits="userSpaceOnUse">
<stop stop-color="#FFC063"/>
<stop offset="0.95" stop-color="#E44D0B"/>
</linearGradient>
<linearGradient id="paint24_linear" x1="7808.16" y1="-1025.31" x2="7869.67" y2="-1195.39" gradientUnits="userSpaceOnUse">
<stop stop-color="#F8A695"/>
<stop offset="1" stop-color="#E56045"/>
</linearGradient>
<linearGradient id="paint25_linear" x1="8958.33" y1="-3999.13" x2="8856.2" y2="-3912.41" gradientUnits="userSpaceOnUse">
<stop stop-color="#223762"/>
<stop offset="1" stop-color="#041B48"/>
</linearGradient>
<linearGradient id="paint26_linear" x1="16268.3" y1="-5480.65" x2="17587.9" y2="-7180.5" gradientUnits="userSpaceOnUse">
<stop stop-color="#F8A695"/>
<stop offset="1" stop-color="#E56045"/>
</linearGradient>
<linearGradient id="paint27_linear" x1="18454.2" y1="-7677.75" x2="17986.2" y2="-5039.69" gradientUnits="userSpaceOnUse">
<stop stop-color="#223762"/>
<stop offset="1" stop-color="#041B48"/>
</linearGradient>
<linearGradient id="paint28_linear" x1="14088.9" y1="-7503.64" x2="13658" y2="-8108.24" gradientUnits="userSpaceOnUse">
<stop stop-color="#223762"/>
<stop offset="1" stop-color="#041B48"/>
</linearGradient>
<linearGradient id="paint29_linear" x1="24361.4" y1="7207.34" x2="21373.9" y2="11551" gradientUnits="userSpaceOnUse">
<stop stop-color="#FFC063"/>
<stop offset="1" stop-color="#E58F0F"/>
</linearGradient>
<linearGradient id="paint30_linear" x1="134411" y1="39609" x2="134411" y2="24939.7" gradientUnits="userSpaceOnUse">
<stop stop-color="#3769A5"/>
<stop offset="1" stop-color="#08448B"/>
</linearGradient>
<linearGradient id="paint31_linear" x1="132595" y1="39609" x2="132595" y2="24939.7" gradientUnits="userSpaceOnUse">
<stop stop-color="#3769A5"/>
<stop offset="1" stop-color="#08448B"/>
</linearGradient>
<linearGradient id="paint32_linear" x1="142944" y1="32141.4" x2="142944" y2="27661.6" gradientUnits="userSpaceOnUse">
<stop stop-color="#3769A5"/>
<stop offset="1" stop-color="#08448B"/>
</linearGradient>
<linearGradient id="paint33_linear" x1="141127" y1="32141.4" x2="141127" y2="27661.6" gradientUnits="userSpaceOnUse">
<stop stop-color="#3769A5"/>
<stop offset="1" stop-color="#08448B"/>
</linearGradient>
<linearGradient id="paint34_linear" x1="65.8787" y1="218.3" x2="65.8787" y2="156.939" gradientUnits="userSpaceOnUse">
<stop stop-color="#A7BDE5"/>
<stop offset="1" stop-color="#2F66CB"/>
</linearGradient>
<linearGradient id="paint35_linear" x1="-132971" y1="38781.4" x2="-132971" y2="27924.7" gradientUnits="userSpaceOnUse">
<stop stop-color="#A7BDE5"/>
<stop offset="1" stop-color="#2F66CB"/>
</linearGradient>
<linearGradient id="paint36_linear" x1="-11033" y1="5842.44" x2="-11374" y2="5736.53" gradientUnits="userSpaceOnUse">
<stop stop-color="#4C93F4"/>
<stop offset="1" stop-color="#0B63DA"/>
</linearGradient>
<linearGradient id="paint37_linear" x1="19262.1" y1="1914.5" x2="19228.4" y2="1870.15" gradientUnits="userSpaceOnUse">
<stop stop-color="#FFC063"/>
<stop offset="0.95" stop-color="#E44D0B"/>
</linearGradient>
<linearGradient id="paint38_linear" x1="-41590.6" y1="4801.95" x2="-42055.2" y2="4174.43" gradientUnits="userSpaceOnUse">
<stop stop-color="#4C93F4"/>
<stop offset="1" stop-color="#0B63DA"/>
</linearGradient>
<linearGradient id="paint39_linear" x1="1.05123e+06" y1="2302.21" x2="1.07811e+06" y2="51897.2" gradientUnits="userSpaceOnUse">
<stop stop-color="#A7BDE5"/>
<stop offset="1" stop-color="#2F66CB"/>
</linearGradient>
<linearGradient id="paint40_linear" x1="-143332" y1="35999.8" x2="-143332" y2="24589.6" gradientUnits="userSpaceOnUse">
<stop stop-color="#A7BDE5"/>
<stop offset="1" stop-color="#2F66CB"/>
</linearGradient>
<linearGradient id="paint41_linear" x1="-141539" y1="35999.8" x2="-141539" y2="24589.6" gradientUnits="userSpaceOnUse">
<stop stop-color="#A7BDE5"/>
<stop offset="1" stop-color="#2F66CB"/>
</linearGradient>
<linearGradient id="paint42_linear" x1="1.50355e+06" y1="2905.57" x2="1.31707e+06" y2="2905.57" gradientUnits="userSpaceOnUse">
<stop stop-color="#223762"/>
<stop offset="1" stop-color="#041B48"/>
</linearGradient>
<linearGradient id="paint43_linear" x1="1161.15" y1="6350.5" x2="1823.34" y2="6495.11" gradientUnits="userSpaceOnUse">
<stop stop-color="#3769A5"/>
<stop offset="1" stop-color="#08448B"/>
</linearGradient>
<linearGradient id="paint44_linear" x1="73379.1" y1="7015.01" x2="74896.1" y2="8851.76" gradientUnits="userSpaceOnUse">
<stop stop-color="#4C93F4"/>
<stop offset="1" stop-color="#0B63DA"/>
</linearGradient>
<linearGradient id="paint45_linear" x1="4269.72" y1="-1140.37" x2="6636.8" y2="-903.66" gradientUnits="userSpaceOnUse">
<stop stop-color="#223762"/>
<stop offset="1" stop-color="#041B48"/>
</linearGradient>
<linearGradient id="paint46_linear" x1="10079.3" y1="33857.6" x2="5729.15" y2="35668.9" gradientUnits="userSpaceOnUse">
<stop stop-color="#223762"/>
<stop offset="1" stop-color="#041B48"/>
</linearGradient>
<linearGradient id="paint47_linear" x1="7674.58" y1="22218.8" x2="8157.08" y2="22218.8" gradientUnits="userSpaceOnUse">
<stop stop-color="#3769A5"/>
<stop offset="1" stop-color="#08448B"/>
</linearGradient>
<linearGradient id="paint48_linear" x1="10223.1" y1="12878.9" x2="-3132.37" y2="24029.2" gradientUnits="userSpaceOnUse">
<stop stop-color="#4C93F4"/>
<stop offset="1" stop-color="#0B63DA"/>
</linearGradient>
<linearGradient id="paint49_linear" x1="20728.3" y1="30186.6" x2="16918.9" y2="33654" gradientUnits="userSpaceOnUse">
<stop stop-color="#3769A5"/>
<stop offset="1" stop-color="#08448B"/>
</linearGradient>
<linearGradient id="paint50_linear" x1="307.829" y1="207.065" x2="245.566" y2="234.84" gradientUnits="userSpaceOnUse">
<stop stop-color="#FF9F5B"/>
<stop offset="1" stop-color="#E5670E"/>
</linearGradient>
<linearGradient id="paint51_linear" x1="11344.9" y1="20423" x2="10976.3" y2="20423" gradientUnits="userSpaceOnUse">
<stop stop-color="#FF9F5B"/>
<stop offset="1" stop-color="#E5670E"/>
</linearGradient>
<linearGradient id="paint52_linear" x1="2160.2" y1="1387.66" x2="2114.15" y2="1456" gradientUnits="userSpaceOnUse">
<stop stop-color="#4C93F4"/>
<stop offset="1" stop-color="#0B63DA"/>
</linearGradient>
<linearGradient id="paint53_linear" x1="3992.11" y1="-3367.06" x2="3946.4" y2="-3337.34" gradientUnits="userSpaceOnUse">
<stop stop-color="#4C93F4"/>
<stop offset="1" stop-color="#0B63DA"/>
</linearGradient>
<linearGradient id="paint54_linear" x1="5684.07" y1="-4760.79" x2="5621.41" y2="-4720.04" gradientUnits="userSpaceOnUse">
<stop stop-color="#4C93F4"/>
<stop offset="1" stop-color="#0B63DA"/>
</linearGradient>
<linearGradient id="paint55_linear" x1="5497.59" y1="-1591.34" x2="5452.68" y2="-1531.59" gradientUnits="userSpaceOnUse">
<stop stop-color="#4C93F4"/>
<stop offset="1" stop-color="#0B63DA"/>
</linearGradient>
<linearGradient id="paint56_linear" x1="13640" y1="16002.9" x2="17879.2" y2="22932.6" gradientUnits="userSpaceOnUse">
<stop stop-color="#3769A5"/>
<stop offset="1" stop-color="#08448B"/>
</linearGradient>
<linearGradient id="paint57_linear" x1="14086.2" y1="15730.4" x2="18325.6" y2="22659.5" gradientUnits="userSpaceOnUse">
<stop stop-color="#4C93F4"/>
<stop offset="1" stop-color="#0B63DA"/>
</linearGradient>
<linearGradient id="paint58_linear" x1="13946.2" y1="14476.3" x2="20023.3" y2="24408.5" gradientUnits="userSpaceOnUse">
<stop stop-color="#4C93F4"/>
<stop offset="1" stop-color="#0B63DA"/>
</linearGradient>
<linearGradient id="paint59_linear" x1="3048.84" y1="5135.87" x2="3039.34" y2="5183.97" gradientUnits="userSpaceOnUse">
<stop stop-color="#4C93F4"/>
<stop offset="1" stop-color="#0B63DA"/>
</linearGradient>
<linearGradient id="paint60_linear" x1="3116.03" y1="5160.92" x2="3106.53" y2="5209.03" gradientUnits="userSpaceOnUse">
<stop stop-color="#4C93F4"/>
<stop offset="1" stop-color="#0B63DA"/>
</linearGradient>
<linearGradient id="paint61_linear" x1="2965.72" y1="-289.503" x2="2947.37" y2="-262.529" gradientUnits="userSpaceOnUse">
<stop stop-color="#4C93F4"/>
<stop offset="1" stop-color="#0B63DA"/>
</linearGradient>
<linearGradient id="paint62_linear" x1="2965.49" y1="-248.623" x2="2947.23" y2="-221.792" gradientUnits="userSpaceOnUse">
<stop stop-color="#4C93F4"/>
<stop offset="1" stop-color="#0B63DA"/>
</linearGradient>
<linearGradient id="paint63_linear" x1="4151.6" y1="-524.476" x2="4126.52" y2="-487.646" gradientUnits="userSpaceOnUse">
<stop stop-color="#4C93F4"/>
<stop offset="1" stop-color="#0B63DA"/>
</linearGradient>
<linearGradient id="paint64_linear" x1="4036.82" y1="1171.33" x2="4025.9" y2="1214.51" gradientUnits="userSpaceOnUse">
<stop stop-color="#4C93F4"/>
<stop offset="1" stop-color="#0B63DA"/>
</linearGradient>
<linearGradient id="paint65_linear" x1="17068" y1="2669.83" x2="17063.8" y2="2547.15" gradientUnits="userSpaceOnUse">
<stop stop-color="#223762"/>
<stop offset="1" stop-color="#041B48"/>
</linearGradient>
<linearGradient id="paint66_linear" x1="4053.74" y1="3362.49" x2="4279.42" y2="3257.83" gradientUnits="userSpaceOnUse">
<stop stop-color="#FFC063"/>
<stop offset="0.95" stop-color="#E44D0B"/>
</linearGradient>
<linearGradient id="paint67_linear" x1="4378.93" y1="2905.38" x2="4191.63" y2="3906.64" gradientUnits="userSpaceOnUse">
<stop stop-color="#FFC063"/>
<stop offset="0.95" stop-color="#E44D0B"/>
</linearGradient>
<linearGradient id="paint68_linear" x1="3284.26" y1="2488.28" x2="3509.84" y2="2383.54" gradientUnits="userSpaceOnUse">
<stop stop-color="#FFC063"/>
<stop offset="0.95" stop-color="#E44D0B"/>
</linearGradient>
<linearGradient id="paint69_linear" x1="3609.47" y1="2035.24" x2="3422.17" y2="3036.5" gradientUnits="userSpaceOnUse">
<stop stop-color="#FFC063"/>
<stop offset="0.95" stop-color="#E44D0B"/>
</linearGradient>
<linearGradient id="paint70_linear" x1="4928.56" y1="2814.42" x2="5153.98" y2="2709.7" gradientUnits="userSpaceOnUse">
<stop stop-color="#FFC063"/>
<stop offset="0.95" stop-color="#E44D0B"/>
</linearGradient>
<linearGradient id="paint71_linear" x1="5253.59" y1="2361.24" x2="5066.18" y2="3362.79" gradientUnits="userSpaceOnUse">
<stop stop-color="#FFC063"/>
<stop offset="0.95" stop-color="#E44D0B"/>
</linearGradient>
<linearGradient id="paint72_linear" x1="11214.3" y1="2928.22" x2="11233.6" y2="3312.87" gradientUnits="userSpaceOnUse">
<stop stop-color="#FFC063"/>
<stop offset="0.95" stop-color="#E44D0B"/>
</linearGradient>
<linearGradient id="paint73_linear" x1="22708.1" y1="8206.59" x2="21153.1" y2="12381.8" gradientUnits="userSpaceOnUse">
<stop stop-color="#4C93F4"/>
<stop offset="1" stop-color="#0B63DA"/>
</linearGradient>
<linearGradient id="paint74_linear" x1="2484.19" y1="2894.15" x2="2346.97" y2="3034.24" gradientUnits="userSpaceOnUse">
<stop stop-color="#FFC063"/>
<stop offset="0.95" stop-color="#E44D0B"/>
</linearGradient>
<linearGradient id="paint75_linear" x1="4598.21" y1="6084.08" x2="4431.82" y2="5817.67" gradientUnits="userSpaceOnUse">
<stop stop-color="#4C93F4"/>
<stop offset="1" stop-color="#0B63DA"/>
</linearGradient>
<linearGradient id="paint76_linear" x1="5044.81" y1="709.344" x2="5014.61" y2="633.233" gradientUnits="userSpaceOnUse">
<stop stop-color="#4C93F4"/>
<stop offset="1" stop-color="#0B63DA"/>
</linearGradient>
<linearGradient id="paint77_linear" x1="5097.71" y1="2448.45" x2="5493.48" y2="2561.22" gradientUnits="userSpaceOnUse">
<stop stop-color="#FFC063"/>
<stop offset="0.95" stop-color="#E44D0B"/>
</linearGradient>
<linearGradient id="paint78_linear" x1="6141.71" y1="797.722" x2="6762.19" y2="797.722" gradientUnits="userSpaceOnUse">
<stop stop-color="#4C93F4"/>
<stop offset="1" stop-color="#0B63DA"/>
</linearGradient>
<linearGradient id="paint79_linear" x1="4631.44" y1="797.722" x2="4916.53" y2="797.722" gradientUnits="userSpaceOnUse">
<stop stop-color="#4C93F4"/>
<stop offset="1" stop-color="#0B63DA"/>
</linearGradient>
<linearGradient id="paint80_linear" x1="6458.31" y1="2570.46" x2="7077.56" y2="2670.54" gradientUnits="userSpaceOnUse">
<stop stop-color="#4C93F4"/>
<stop offset="1" stop-color="#0B63DA"/>
</linearGradient>
<linearGradient id="paint81_linear" x1="4273.97" y1="2155.47" x2="4528.54" y2="2196.61" gradientUnits="userSpaceOnUse">
<stop stop-color="#4C93F4"/>
<stop offset="1" stop-color="#0B63DA"/>
</linearGradient>
</defs>
</svg>
