<svg width="16" height="15" viewBox="0 0 16 15" fill="none" xmlns="http://www.w3.org/2000/svg">
<path d="M13.7812 9.5C14.082 9.5 14.3555 9.30859 14.4375 9.00781L15.7227 3.32031C15.8047 2.91016 15.5039 2.5 15.0664 2.5H4.34766L4.10156 1.29688C4.01953 0.996094 3.74609 0.75 3.44531 0.75H0.65625C0.273438 0.75 0 1.05078 0 1.40625V1.84375C0 2.22656 0.273438 2.5 0.65625 2.5H2.54297L4.48438 11.9062C3.99219 12.1797 3.66406 12.6992 3.71875 13.3281C3.74609 14.0938 4.375 14.7227 5.16797 14.75C6.04297 14.8047 6.78125 14.0938 6.78125 13.2188C6.78125 12.8086 6.58984 12.4258 6.31641 12.125H12.0312C11.7578 12.4258 11.5664 12.8359 11.5938 13.2734C11.5938 14.0938 12.2773 14.75 13.0977 14.75C13.9453 14.7773 14.6562 14.0938 14.6562 13.2188C14.6562 12.6172 14.3008 12.0977 13.7812 11.8516L13.918 11.1953C14.0273 10.7852 13.6992 10.375 13.2891 10.375H5.96094L5.76953 9.5H13.7812ZM11.1562 5.34375C11.375 5.34375 11.5938 5.5625 11.5938 5.78125V6.21875C11.5938 6.46484 11.375 6.65625 11.1562 6.65625H9.84375V7.75C9.84375 7.99609 9.625 8.1875 9.40625 8.1875H8.96875C8.72266 8.1875 8.53125 7.99609 8.53125 7.75V6.65625H7.21875C6.97266 6.65625 6.78125 6.46484 6.78125 6.21875V5.78125C6.78125 5.5625 6.97266 5.34375 7.21875 5.34375H8.53125V4.25C8.53125 4.03125 8.72266 3.8125 8.96875 3.8125H9.40625C9.625 3.8125 9.84375 4.03125 9.84375 4.25V5.34375H11.1562Z" fill="#2C2C2C"/>
</svg>
