<svg width="19" height="15" viewBox="0 0 19 15" fill="none" xmlns="http://www.w3.org/2000/svg">
<path d="M14.3438 6H10.1875V7.53125C10.1875 8.625 9.28516 9.5 8.21875 9.5C7.125 9.5 6.25 8.625 6.25 7.53125V4.22266L4.47266 5.28906C3.92578 5.58984 3.625 6.16406 3.625 6.79297V8.07812L1.4375 9.33594C1 9.58203 0.863281 10.1289 1.10938 10.5391L3.29688 14.3125C3.54297 14.75 4.0625 14.8867 4.5 14.6406L7.31641 13H11.0625C12.0195 13 12.8125 12.2344 12.8125 11.25H13.25C13.7148 11.25 14.125 10.8672 14.125 10.375V8.625H14.3438C14.6992 8.625 15 8.35156 15 7.96875V6.65625C15 6.30078 14.6992 6 14.3438 6ZM18.3633 4.98828L16.1758 1.1875C15.9297 0.777344 15.4102 0.640625 15 0.886719L12.1562 2.5H9.36719C9.03906 2.5 8.71094 2.60938 8.4375 2.77344L7.53516 3.34766C7.26172 3.51172 7.125 3.78516 7.125 4.08594V7.53125C7.125 8.16016 7.58984 8.625 8.21875 8.625C8.82031 8.625 9.3125 8.16016 9.3125 7.53125V5.125H14.3438C15.1641 5.125 15.875 5.83594 15.875 6.65625V7.44922L18.0625 6.19141C18.4727 5.94531 18.6094 5.39844 18.3633 4.98828Z" fill="#2C2C2C"/>
</svg>
