<svg width="19" height="13" viewBox="0 0 19 13" fill="none" xmlns="http://www.w3.org/2000/svg">
<path d="M12.6211 6.75C12.1562 6.75 11.7188 6.50391 11.5 6.12109L9.75 3.19531L7.97266 6.12109C7.75391 6.53125 7.31641 6.77734 6.85156 6.77734C6.71484 6.77734 6.60547 6.75 6.49609 6.72266L2.75 5.62891V10.4961C2.75 10.9062 3.02344 11.2617 3.40625 11.3438L9.3125 12.8477C9.58594 12.9023 9.88672 12.9023 10.1602 12.8477L16.0664 11.3438C16.4766 11.2617 16.75 10.9062 16.75 10.4961V5.62891L13.0039 6.72266C12.8672 6.75 12.7578 6.75 12.6211 6.75ZM18.4453 3.6875L17.0234 0.871094C16.9414 0.707031 16.7773 0.625 16.5859 0.652344L9.75 1.5L12.2383 5.68359C12.3477 5.84766 12.5664 5.92969 12.7578 5.875L18.1719 4.31641C18.4453 4.23438 18.5547 3.93359 18.4453 3.6875ZM2.44922 0.871094L1.02734 3.6875C0.917969 3.93359 1.05469 4.23438 1.30078 4.31641L6.71484 5.875C6.90625 5.92969 7.125 5.84766 7.23438 5.65625L9.75 1.5L2.88672 0.652344C2.69531 0.625 2.53125 0.707031 2.44922 0.871094Z" fill="#2C2C2C"/>
</svg>
