<svg width="18" height="13" viewBox="0 0 18 13" fill="none" xmlns="http://www.w3.org/2000/svg">
<path d="M16.9805 1.25391C15.9141 0.816406 14.8477 0.625 13.7812 0.625C10.418 0.625 7.05469 2.34766 3.69141 2.34766C2.84375 2.34766 1.99609 2.23828 1.14844 1.96484C1.06641 1.9375 0.957031 1.91016 0.875 1.91016C0.410156 1.91016 0 2.29297 0 2.78516V11.4805C0 11.8086 0.191406 12.1367 0.492188 12.2734C1.55859 12.7109 2.625 12.875 3.69141 12.875C7.05469 12.875 10.418 11.1797 13.7812 11.1797C14.6289 11.1797 15.4766 11.2891 16.3242 11.5625C16.4062 11.5898 16.5156 11.5898 16.5977 11.5898C17.0625 11.5898 17.5 11.2344 17.5 10.7422V2.04688C17.5 1.71875 17.2812 1.39062 16.9805 1.25391ZM1.3125 3.38672C1.85938 3.52344 2.43359 3.57812 3.00781 3.63281C2.84375 4.42578 2.16016 5.02734 1.3125 5.02734V3.38672ZM1.3125 11.1797V9.86719C2.24219 9.86719 3.00781 10.6055 3.03516 11.5352C2.43359 11.5078 1.85938 11.3711 1.3125 11.1797ZM8.75 9.375C7.51953 9.375 6.5625 8.22656 6.5625 6.75C6.5625 5.30078 7.51953 4.125 8.75 4.125C9.95312 4.125 10.9375 5.30078 10.9375 6.75C10.9375 8.22656 9.95312 9.375 8.75 9.375ZM16.1875 10.1406C15.6953 10.0312 15.2031 9.94922 14.6836 9.92188C14.8477 9.21094 15.4492 8.66406 16.1875 8.58203V10.1406ZM16.1875 3.6875C15.3398 3.57812 14.6836 2.86719 14.6562 2.01953C15.1758 2.07422 15.6953 2.18359 16.1875 2.34766V3.6875Z" fill="#2C2C2C"/>
</svg>
