<svg width="11" height="15" viewBox="0 0 11 15" fill="none" xmlns="http://www.w3.org/2000/svg">
<path d="M7.875 7.75H2.625V9.5H7.875V7.75ZM10.3086 3.62109L7.62891 0.941406C7.49219 0.832031 7.32812 0.75 7.16406 0.75H7V4.25H10.5V4.08594C10.5 3.92188 10.418 3.75781 10.3086 3.62109ZM6.125 4.46875V0.75H0.65625C0.273438 0.75 0 1.05078 0 1.40625V14.0938C0 14.4766 0.273438 14.75 0.65625 14.75H9.84375C10.1992 14.75 10.5 14.4766 10.5 14.0938V5.125H6.78125C6.39844 5.125 6.125 4.85156 6.125 4.46875ZM1.75 2.71875C1.75 2.60938 1.83203 2.5 1.96875 2.5H4.15625C4.26562 2.5 4.375 2.60938 4.375 2.71875V3.15625C4.375 3.29297 4.26562 3.375 4.15625 3.375H1.96875C1.83203 3.375 1.75 3.29297 1.75 3.15625V2.71875ZM1.75 4.46875C1.75 4.35938 1.83203 4.25 1.96875 4.25H4.15625C4.26562 4.25 4.375 4.35938 4.375 4.46875V4.90625C4.375 5.04297 4.26562 5.125 4.15625 5.125H1.96875C1.83203 5.125 1.75 5.04297 1.75 4.90625V4.46875ZM8.75 12.7812C8.75 12.918 8.64062 13 8.53125 13H6.34375C6.20703 13 6.125 12.918 6.125 12.7812V12.3438C6.125 12.2344 6.20703 12.125 6.34375 12.125H8.53125C8.64062 12.125 8.75 12.2344 8.75 12.3438V12.7812ZM8.75 7.3125V9.9375C8.75 10.1836 8.53125 10.375 8.3125 10.375H2.1875C1.94141 10.375 1.75 10.1836 1.75 9.9375V7.3125C1.75 7.09375 1.94141 6.875 2.1875 6.875H8.3125C8.53125 6.875 8.75 7.09375 8.75 7.3125Z" fill="#2C2C2C"/>
</svg>
