<svg width="18" height="15" viewBox="0 0 18 15" fill="none" xmlns="http://www.w3.org/2000/svg">
<path d="M17.4609 4.00391L15.6836 1.16016C15.5195 0.914062 15.2461 0.75 14.9453 0.75H3.89844C3.59766 0.75 3.29688 0.914062 3.13281 1.16016L1.38281 4.00391C0.453125 5.48047 1.27344 7.50391 2.96875 7.72266C3.10547 7.75 3.21484 7.75 3.35156 7.75C4.17188 7.75 4.88281 7.39453 5.375 6.84766C5.86719 7.39453 6.57812 7.75 7.39844 7.75C8.19141 7.75 8.90234 7.39453 9.39453 6.84766C9.88672 7.39453 10.625 7.75 11.418 7.75C12.2383 7.75 12.9492 7.39453 13.4414 6.84766C13.9336 7.39453 14.6445 7.75 15.4648 7.75C15.6016 7.75 15.7109 7.75 15.8477 7.72266C17.543 7.50391 18.3633 5.48047 17.4609 4.00391ZM15.4648 8.625C15.1914 8.625 14.918 8.59766 14.6719 8.54297V11.25H4.17188V8.54297C3.89844 8.59766 3.625 8.625 3.35156 8.625C3.1875 8.625 3.02344 8.625 2.85938 8.59766C2.69531 8.57031 2.55859 8.54297 2.42188 8.51562V13.875C2.42188 14.3672 2.80469 14.75 3.29688 14.75H15.5469C16.0117 14.75 16.4219 14.3672 16.4219 13.875V8.51562C16.2578 8.54297 16.1211 8.59766 15.957 8.59766C15.793 8.625 15.6289 8.625 15.4648 8.625Z" fill="#2C2C2C"/>
</svg>
