<svg width="24" height="24" viewBox="0 0 24 24" fill="none" xmlns="http://www.w3.org/2000/svg">
<circle cx="12" cy="12" r="12" fill="#FFF9F9"/>
<g clip-path="url(#clip0)">
<path d="M19.7464 12.1521C19.7464 11.4865 19.6924 11.0008 19.5755 10.4971H11.9736V13.5012H16.4357C16.3458 14.2478 15.86 15.3722 14.7804 16.1277L14.7653 16.2282L17.1689 18.0899L17.3354 18.1065C18.8647 16.6944 19.7464 14.6166 19.7464 12.1521Z" fill="#4285F4"/>
<path d="M11.9737 20.0671C14.1598 20.0671 15.995 19.3475 17.3355 18.1063L14.7805 16.1274C14.0968 16.6041 13.1792 16.9369 11.9737 16.9369C9.83263 16.9369 8.0154 15.5248 7.36761 13.573L7.27266 13.5811L4.77341 15.5149L4.74072 15.6058C6.07215 18.2502 8.80701 20.0671 11.9737 20.0671Z" fill="#34A853"/>
<path d="M7.36746 13.5731C7.19653 13.0694 7.09761 12.5297 7.09761 11.9721C7.09761 11.4144 7.19653 10.8747 7.35847 10.371L7.35394 10.2637L4.82337 8.29883L4.74057 8.3382C4.19182 9.43556 3.87695 10.6679 3.87695 11.9721C3.87695 13.2763 4.19182 14.5085 4.74057 15.6059L7.36746 13.5731Z" fill="#FBBC05"/>
<path d="M11.9737 7.00707C13.4941 7.00707 14.5196 7.66367 15.1044 8.21238L17.3894 5.9817C15.9861 4.67748 14.1598 3.87695 11.9737 3.87695C8.80701 3.87695 6.07215 5.69386 4.74072 8.33826L7.35862 10.3711C8.0154 8.41924 9.83263 7.00707 11.9737 7.00707Z" fill="#EB4335"/>
</g>
<defs>
<clipPath id="clip0">
<rect width="15.8769" height="16.2462" fill="white" transform="translate(3.87695 3.87695)"/>
</clipPath>
</defs>
</svg>
